# xmcd
#
# Track frame offsets: 
#        150
#        16607
#        39747
#        66761
#        89448
#        112262
#        122749
#        147355
#        201249
#
# Disc length: 3545 seconds
#
# Revision: 0
# Processed by: cddbd v1.5.2PL0 Copyright (c) Steve Scherf et al.
# Submitted via: ExactAudioCopy v0.99pb5
#
DISCID=800dd709
DTITLE=송암스님 - 한국의 범패 시리즈 10
DYEAR=1900
DGENRE=범패
TTITLE0=복청게 - 홋소리 - 송암스님
TTITLE1=천수바라 - 홋소리(바라무) - 송암스님
TTITLE2=사방찬 - 홋소리 - 송암스님
TTITLE3=도량게 - 홋소리(나비무) - 송암스님
TTITLE4=참회게 - 홋소리 - 송암스님
TTITLE5=육거불 - 평염불 - 송암스님
TTITLE6=삼보소 - 안채비(소성) - 송암스님
TTITLE7=대청불 - 홋소리 - 송암스님
TTITLE8=삼례청 - 홋소리 - 송암스님
EXTD=
EXTT0=
EXTT1=
EXTT2=
EXTT3=
EXTT4=
EXTT5=
EXTT6=
EXTT7=
EXTT8=
PLAYORDER=
